/vscmnt/brussel_pixiu_data/_data_brussel/112/vsc11236/PredSimResults/SUBJ10opt3D/trackIG/worker_12.mot
version=1
nRows=4
nColumns=50
inDegrees=yes
endheader
                time	         pelvis_tilt	         pelvis_list	     pelvis_rotation	           pelvis_tx	           pelvis_ty	           pelvis_tz	       hip_flexion_r	     hip_adduction_r	      hip_rotation_r	        knee_angle_r	       ankle_angle_r	         mtp_angle_r	       hip_flexion_l	     hip_adduction_l	      hip_rotation_l	        knee_angle_l	       ankle_angle_l	         mtp_angle_l	    lumbar_extension	      lumbar_bending	     lumbar_rotation	 ercspn_r/activation	 intobl_r/activation	 extobl_r/activation	    abd_r/activation	    add_r/activation	hamstrings_r/activation	bifemsh_r/activation	glut_max_r/activation	iliopsoas_r/activation	rect_fem_r/activation	  vasti_r/activation	gastroc_r/activation	 soleus_r/activation	tib_ant_r/activation	 ercspn_l/activation	 intobl_l/activation	 extobl_l/activation	    abd_l/activation	    add_l/activation	hamstrings_l/activation	bifemsh_l/activation	glut_max_l/activation	iliopsoas_l/activation	rect_fem_l/activation	  vasti_l/activation	gastroc_l/activation	 soleus_l/activation	tib_ant_l/activation	
          0.00000000	        -10.82090438	         -1.78586834	         13.68762725	          0.00000000	          0.78729779	         -0.01153939	         43.73645502	         -5.88512089	         -6.95926646	        -11.10103991	         -0.33490803	          0.26177189	         -4.73925628	         -2.53494721	          8.09230821	        -25.32542317	          9.23980599	         38.30888099	         -7.92162363	         -1.69442582	         -2.37815842	          0.14382454	          0.11240081	          0.00999999	          0.00999999	          0.09685751	          0.05187010	          0.25635509	          0.10388110	          0.08746360	          0.01655981	          0.00999999	          0.06978424	          0.01183091	          0.32678828	          0.11461953	          0.00999999	          0.00999999	          0.03804497	          0.11427256	          0.06237211	          0.40483391	          0.01308984	          0.03545037	          0.04897535	          0.05372614	          0.17582569	          0.28504953	          0.01734931	
          0.01098553	        -10.72794456	         -1.82837610	         13.94721334	          0.02363014	          0.78738737	         -0.01105132	         43.69324543	         -5.83253595	         -7.29935725	        -14.21093459	         -0.47349210	          0.24221139	         -6.15416608	         -3.05558594	          7.75367057	        -25.22525172	          6.49533409	         38.87547746	         -7.62108343	         -1.32488797	         -2.58956574	          0.12156663	          0.09500595	          0.00999999	          0.00999999	          0.08186810	          0.06095774	          0.21668225	          0.19673158	          0.07392796	          0.01399706	          0.00999999	          0.05898461	          0.00999999	          0.39077741	          0.10832528	          0.00999999	          0.00999999	          0.03215723	          0.16462264	          0.05271958	          0.34218288	          0.01106409	          0.11890993	          0.04139605	          0.04541163	          0.15467779	          0.24093601	          0.01466437	
          0.02197107	        -10.63077871	         -1.84228368	         14.15235642	          0.04708842	          0.78751652	         -0.01049108	         43.64333087	         -5.77774472	         -7.58485022	        -17.25082785	         -0.76425594	          0.22470668	         -7.19575833	         -3.49148484	          7.40525128	        -25.78620493	          3.90500008	         38.63684068	         -7.36728480	         -0.97271720	         -2.77026010	          0.14446707	          0.08030308	          0.00999999	          0.05482320	          0.15258074	          0.06123398	          0.18314908	          0.28126725	          0.06248707	          0.01183091	          0.00999999	          0.04985631	          0.00999999	          0.44681785	          0.14662656	          0.00999999	          0.00999999	          0.02718067	          0.24776161	          0.04456084	          0.28922755	          0.00999999	          0.28131656	          0.03498971	          0.03838384	          0.13074026	          0.20364939	          0.01239495	
          0.03295660	        -10.52776327	         -1.82759392	         14.30249125	          0.07018693	          0.78784736	         -0.00986515	         43.63694639	         -5.71041990	         -7.77259597	        -20.35961308	         -0.80425784	          0.19658917	         -7.74037451	         -3.82423843	          7.10567129	        -27.16361649	          1.34545223	         37.72450219	         -7.17900243	         -0.63513939	         -2.91559726	          0.16079141	          0.06787559	          0.00999999	          0.10728734	          0.20924689	          0.05506450	          0.15480541	          0.36598898	          0.05281673	          0.00999999	          0.00999999	          0.04214068	          0.00999999	          0.41368049	          0.21137488	          0.00999999	          0.00999999	          0.02297426	          0.25998372	          0.03766472	          0.24446746	          0.01490615	          0.40550691	          0.02957479	          0.03244366	          0.11050724	          0.17213314	          0.01047674	
